# xmcd CD database file
#
# Track frame offsets:
#	150
#	14828
#	24917
#	39154
#	58061
#	67394
#	80106
#	93310
#	106901
#	128973
#	144382
#
# Disc length: 2184 seconds
#
# Revision: 0
# Processed by: cddbd v1.5.1PL2 Copyright (c) Steve Scherf et al.
# Submitted via: CDex 1.51
#
DISCID=9808860b
DTITLE=Dennis Marsh - Feelings
DYEAR=1995
DGENRE=Country
TTITLE0=Stop The World And Let Me Off
TTITLE1=Call Me Lonesome
TTITLE2=Don't Worry
TTITLE3=Buenos Noches From A Lonely Room (She Wore A Red Dresses)
TTITLE4=Anything That Part Of You
TTITLE5=On The Outside Looking In
TTITLE6=Let's Chase Each Other Around The Room
TTITLE7=Two Will Be One
TTITLE8=Surround Me With Love
TTITLE9=He's Left The Building
TTITLE10=Peacful Easy Feeling
EXTD=YEAR: 1995
EXTT0=
EXTT1=
EXTT2=
EXTT3=
EXTT4=
EXTT5=
EXTT6=
EXTT7=
EXTT8=
EXTT9=
EXTT10=
PLAYORDER=
